<svg width="20" height="20" viewBox="0 0 20 20" fill="none" xmlns="http://www.w3.org/2000/svg">
<path d="M10 3.75C11.2361 3.75 12.4445 4.11656 13.4723 4.80331C14.5001 5.49007 15.3012 6.46619 15.7742 7.60823C16.2473 8.75027 16.3711 10.0069 16.1299 11.2193C15.8888 12.4317 15.2935 13.5453 14.4194 14.4194C13.5453 15.2935 12.4317 15.8888 11.2193 16.1299C10.0069 16.3711 8.75027 16.2473 7.60823 15.7742C6.46619 15.3012 5.49007 14.5001 4.80331 13.4723C4.11656 12.4445 3.75 11.2361 3.75 10L10 10L10 3.75Z" fill="#00A5EB"/>
<path d="M20 10C20 15.5228 15.5228 20 10 20C4.47715 20 0 15.5228 0 10C0 4.47715 4.47715 0 10 0C15.5228 0 20 4.47715 20 10ZM2.5 10C2.5 14.1421 5.85786 17.5 10 17.5C14.1421 17.5 17.5 14.1421 17.5 10C17.5 5.85786 14.1421 2.5 10 2.5C5.85786 2.5 2.5 5.85786 2.5 10Z" fill="#00A5EB"/>
</svg>
