<svg width="20" height="20" viewBox="0 0 20 20" fill="none" xmlns="http://www.w3.org/2000/svg">
<path d="M10 3.75C10.8208 3.75 11.6335 3.91166 12.3918 4.22575C13.1501 4.53985 13.8391 5.00022 14.4194 5.58058C14.9998 6.16095 15.4602 6.84994 15.7742 7.60823C16.0883 8.36651 16.25 9.17924 16.25 10L10 10L10 3.75Z" fill="#FFBB08"/>
<path d="M20 10C20 15.5228 15.5228 20 10 20C4.47715 20 0 15.5228 0 10C0 4.47715 4.47715 0 10 0C15.5228 0 20 4.47715 20 10ZM2.5 10C2.5 14.1421 5.85786 17.5 10 17.5C14.1421 17.5 17.5 14.1421 17.5 10C17.5 5.85786 14.1421 2.5 10 2.5C5.85786 2.5 2.5 5.85786 2.5 10Z" fill="#FFBB08"/>
</svg>
