<svg width="24" height="25" viewBox="0 0 24 25" fill="none" xmlns="http://www.w3.org/2000/svg">
<path d="M9.40342 3.85004V5.10004H14.5982V3.85004C14.5982 3.1598 15.1786 2.60004 15.8969 2.60004C16.6153 2.60004 17.1956 3.1598 17.1956 3.85004V5.10004H19.1437C20.2192 5.10004 21.0917 5.93949 21.0917 6.97504V8.85004H2.90991V6.97504C2.90991 5.93949 3.78207 5.10004 4.85796 5.10004H6.80602V3.85004C6.80602 3.1598 7.38637 2.60004 8.10472 2.60004C8.82306 2.60004 9.40342 3.1598 9.40342 3.85004ZM2.90991 10.1H21.0917V20.725C21.0917 21.7602 20.2192 22.6 19.1437 22.6H4.85796C3.78207 22.6 2.90991 21.7602 2.90991 20.725V10.1ZM5.50731 14.475C5.50731 14.8188 5.7979 15.1 6.15667 15.1H7.45537C7.81251 15.1 8.10472 14.8188 8.10472 14.475V13.225C8.10472 12.8813 7.81251 12.6 7.45537 12.6H6.15667C5.7979 12.6 5.50731 12.8813 5.50731 13.225V14.475ZM10.7021 14.475C10.7021 14.8188 10.9943 15.1 11.3515 15.1H12.6502C13.0073 15.1 13.2995 14.8188 13.2995 14.475V13.225C13.2995 12.8813 13.0073 12.6 12.6502 12.6H11.3515C10.9943 12.6 10.7021 12.8813 10.7021 13.225V14.475ZM16.5463 12.6C16.1891 12.6 15.8969 12.8813 15.8969 13.225V14.475C15.8969 14.8188 16.1891 15.1 16.5463 15.1H17.845C18.2021 15.1 18.4943 14.8188 18.4943 14.475V13.225C18.4943 12.8813 18.2021 12.6 17.845 12.6H16.5463ZM5.50731 19.475C5.50731 19.8188 5.7979 20.1 6.15667 20.1H7.45537C7.81251 20.1 8.10472 19.8188 8.10472 19.475V18.225C8.10472 17.8813 7.81251 17.6 7.45537 17.6H6.15667C5.7979 17.6 5.50731 17.8813 5.50731 18.225V19.475ZM11.3515 17.6C10.9943 17.6 10.7021 17.8813 10.7021 18.225V19.475C10.7021 19.8188 10.9943 20.1 11.3515 20.1H12.6502C13.0073 20.1 13.2995 19.8188 13.2995 19.475V18.225C13.2995 17.8813 13.0073 17.6 12.6502 17.6H11.3515ZM15.8969 19.475C15.8969 19.8188 16.1891 20.1 16.5463 20.1H17.845C18.2021 20.1 18.4943 19.8188 18.4943 19.475V18.225C18.4943 17.8813 18.2021 17.6 17.845 17.6H16.5463C16.1891 17.6 15.8969 17.8813 15.8969 18.225V19.475Z" fill="#404040"/>
</svg>
