<svg width="24" height="24" viewBox="0 0 24 24" fill="none" xmlns="http://www.w3.org/2000/svg">
<path d="M7.72222 5.75V8.25H11.3889V5.75C11.3889 4.71484 10.5677 3.875 9.55556 3.875C8.5434 3.875 7.72222 4.71484 7.72222 5.75ZM5.88889 8.25V5.75C5.88889 3.67969 7.53125 2 9.55556 2C11.5799 2 13.2222 3.67969 13.2222 5.75V8.25H15.6667C17.0149 8.25 18.1111 9.37109 18.1111 10.75H10.1667C8.47847 10.75 7.11111 12.1484 7.11111 13.875V20.125C7.11111 20.3398 7.13403 20.5469 7.17222 20.75H3.44444C2.09618 20.75 1 19.6289 1 18.25V10.75C1 9.37109 2.09618 8.25 3.44444 8.25H5.88889ZM10.7778 12H20.5556C21.9038 12 23 13.1211 23 14.5V19.5C23 20.8789 21.9038 22 20.5556 22H10.7778C9.42951 22 8.33333 20.8789 8.33333 19.5V14.5C8.33333 13.1211 9.42951 12 10.7778 12ZM13.2222 15.125C13.2222 14.7812 12.9472 14.5 12.6111 14.5C12.275 14.5 12 14.7812 12 15.125V15.75C12 17.8203 13.6424 19.5 15.6667 19.5C17.691 19.5 19.3333 17.8203 19.3333 15.75V15.125C19.3333 14.7812 19.0583 14.5 18.7222 14.5C18.3861 14.5 18.1111 14.7812 18.1111 15.125V15.75C18.1111 17.1289 17.0149 18.25 15.6667 18.25C14.3184 18.25 13.2222 17.1289 13.2222 15.75V15.125Z" fill="#404040"/>
</svg>
