<svg width="24" height="25" viewBox="0 0 24 25" fill="none" xmlns="http://www.w3.org/2000/svg">
<path d="M12 1.80002C10.2039 1.80002 8.67422 2.94728 8.11133 4.55002H6.5C4.9832 4.55002 3.75 5.78322 3.75 7.30002V21.05C3.75 22.5668 4.9832 23.8 6.5 23.8H17.5C19.0168 23.8 20.25 22.5668 20.25 21.05V7.30002C20.25 5.78322 19.0168 4.55002 17.5 4.55002H15.8887C15.3258 2.94728 13.7961 1.80002 12 1.80002ZM12 4.55002C12.3647 4.55002 12.7144 4.69488 12.9723 4.95275C13.2301 5.21061 13.375 5.56035 13.375 5.92502C13.375 6.28969 13.2301 6.63943 12.9723 6.89729C12.7144 7.15515 12.3647 7.30002 12 7.30002C11.6353 7.30002 11.2856 7.15515 11.0277 6.89729C10.7699 6.63943 10.625 6.28969 10.625 5.92502C10.625 5.56035 10.7699 5.21061 11.0277 4.95275C11.2856 4.69488 11.6353 4.55002 12 4.55002ZM11.798 10.252C12.0645 10.5184 12.0645 10.9567 11.798 11.2231L9.04805 13.9731C8.78164 14.2395 8.34336 14.2395 8.07695 13.9731L6.70195 12.5981C6.43555 12.3317 6.43555 11.8934 6.70195 11.627C6.96836 11.3606 7.40664 11.3606 7.67305 11.627L8.5625 12.5164L10.827 10.252C11.0934 9.98557 11.5316 9.98557 11.798 10.252ZM12 13.4875C12 13.1094 12.3094 12.8 12.6875 12.8H16.8125C17.1906 12.8 17.5 13.1094 17.5 13.4875C17.5 13.8656 17.1906 14.175 16.8125 14.175H12.6875C12.3094 14.175 12 13.8656 12 13.4875ZM11.3125 16.925H16.8125C17.1906 16.925 17.5 17.2344 17.5 17.6125C17.5 17.9906 17.1906 18.3 16.8125 18.3H11.3125C10.9344 18.3 10.625 17.9906 10.625 17.6125C10.625 17.2344 10.9344 16.925 11.3125 16.925ZM6.84375 17.6125C6.84375 17.339 6.9524 17.0767 7.1458 16.8833C7.33919 16.6899 7.6015 16.5813 7.875 16.5813C8.1485 16.5813 8.41081 16.6899 8.6042 16.8833C8.7976 17.0767 8.90625 17.339 8.90625 17.6125C8.90625 17.886 8.7976 18.1483 8.6042 18.3417C8.41081 18.5351 8.1485 18.6438 7.875 18.6438C7.6015 18.6438 7.33919 18.5351 7.1458 18.3417C6.9524 18.1483 6.84375 17.886 6.84375 17.6125Z" fill="#404040"/>
</svg>
