<svg width="32" height="32" viewBox="0 0 32 32" fill="none" xmlns="http://www.w3.org/2000/svg">
<path fill-rule="evenodd" clip-rule="evenodd" d="M3.19995 7.6C3.19995 6.93726 3.73721 6.4 4.39995 6.4H27.5999C28.2627 6.4 28.7999 6.93726 28.7999 7.6C28.7999 8.26274 28.2627 8.8 27.5999 8.8H4.39995C3.73721 8.8 3.19995 8.26274 3.19995 7.6ZM3.19995 24.4C3.19995 23.7373 3.73721 23.2 4.39995 23.2H16.4C17.0627 23.2 17.6 23.7373 17.6 24.4C17.6 25.0627 17.0627 25.6 16.4 25.6H4.39995C3.73721 25.6 3.19995 25.0627 3.19995 24.4Z" fill="white"/>
<path fill-rule="evenodd" clip-rule="evenodd" d="M3.19995 16C3.19995 15.3373 3.73721 14.8 4.39995 14.8H27.5999C28.2627 14.8 28.7999 15.3373 28.7999 16C28.7999 16.6627 28.2627 17.2 27.5999 17.2H4.39995C3.73721 17.2 3.19995 16.6627 3.19995 16Z" fill="white"/>
</svg>
