<svg width="24" height="25" viewBox="0 0 24 25" fill="none" xmlns="http://www.w3.org/2000/svg">
<path d="M5.04572 2.48579C5.37854 2.33281 5.76957 2.38745 6.04771 2.62571L7.6251 3.97779L9.20328 2.62571C9.55485 2.32476 10.0705 2.32476 10.4221 2.62571L12.0002 3.97779L13.5784 2.62571C13.93 2.32476 14.4456 2.32476 14.7972 2.62571L16.3754 3.97779L17.9536 2.62571C18.2309 2.38745 18.6216 2.33281 18.9536 2.48579C19.2856 2.6388 19.5005 2.9715 19.5005 3.33753V21.4631C19.5005 21.8303 19.2856 22.1624 18.9536 22.3147C18.6216 22.4671 18.2309 22.4124 17.9536 22.1741L16.3754 20.8225L14.7972 22.1741C14.4456 22.4749 13.93 22.4749 13.5784 22.1741L12.0002 20.8225L10.4221 22.1741C10.0705 22.4749 9.55485 22.4749 9.20328 22.1741L7.6251 20.8225L6.04771 22.1741C5.76957 22.4124 5.37854 22.4671 5.04572 22.3147C4.71313 22.1624 4.5 21.8303 4.5 21.4631V3.33753C4.5 2.9715 4.71313 2.63876 5.04572 2.48579ZM8.25012 8.02519C7.9048 8.02519 7.6251 8.30645 7.6251 8.65021C7.6251 8.99397 7.9048 9.27523 8.25012 9.27523H15.7504C16.0941 9.27523 16.3754 8.99397 16.3754 8.65021C16.3754 8.30645 16.0941 8.02519 15.7504 8.02519H8.25012ZM8.25012 16.7755H15.7504C16.0941 16.7755 16.3754 16.4942 16.3754 16.1505C16.3754 15.8067 16.0941 15.5254 15.7504 15.5254H8.25012C7.9048 15.5254 7.6251 15.8067 7.6251 16.1505C7.6251 16.4942 7.9048 16.7755 8.25012 16.7755ZM8.25012 11.7753C7.9048 11.7753 7.6251 12.0566 7.6251 12.4003C7.6251 12.7441 7.9048 13.0254 8.25012 13.0254H15.7504C16.0941 13.0254 16.3754 12.7441 16.3754 12.4003C16.3754 12.0566 16.0941 11.7753 15.7504 11.7753H8.25012Z" fill="white"/>
</svg>
