<svg width="24" height="25" viewBox="0 0 24 25" fill="none" xmlns="http://www.w3.org/2000/svg">
<path d="M11.9024 7.58947C12.0338 8.13087 12.0381 8.69806 11.9236 9.24376C11.8049 9.75509 11.5633 10.3051 11.2241 10.7434C10.6094 11.4524 9.84213 11.9035 8.91374 12.1184V21.4813C8.91374 21.9367 8.77385 22.375 8.45591 22.6973C8.13797 23.0195 7.70557 23.2 7.21806 23.2C6.80685 23.2 6.3753 23.0195 6.05693 22.6973C5.73899 22.375 5.52237 21.9367 5.52237 21.4813V12.1184C4.66859 11.9465 3.86313 11.4652 3.28406 10.7563C2.94025 10.318 2.70027 9.80665 2.58268 9.25665C2.46508 8.70665 2.47303 8.13947 2.60591 7.59376L3.88645 1.73497C3.92248 1.56946 4.01787 1.42332 4.15394 1.32462C4.2896 1.22588 4.45705 1.18155 4.62323 1.20013C4.78983 1.2185 4.94414 1.29897 5.05605 1.42599C5.16797 1.55296 5.22901 1.71736 5.22816 1.88751V8.07501H5.96452L6.689 1.71177C6.70596 1.57105 6.77294 1.44154 6.87892 1.34757C6.98066 1.25364 7.11631 1.20174 7.21806 1.20174C7.3961 1.20174 7.53176 1.25364 7.6335 1.34757C7.73948 1.44154 7.76915 1.57105 7.82426 1.71177L8.54917 8.07501H9.25288V1.88751C9.25288 1.71865 9.35038 1.55528 9.42245 1.42848C9.57082 1.30168 9.72344 1.22038 9.88877 1.20013C10.0541 1.1817 10.1855 1.22661 10.3593 1.32617C10.495 1.42573 10.5882 1.57285 10.6264 1.73927L11.9024 7.58947ZM21.5 21.4813C21.5 21.9367 21.322 22.375 21.004 22.6973C20.6861 23.0195 20.2537 23.2 19.8043 23.2C19.355 23.2 18.9226 23.0195 18.6046 22.6973C18.2867 22.375 18.1086 21.9367 18.1086 21.4813V16.325H17.3964C17.0403 16.325 16.6842 16.252 16.3536 16.1145C16.0272 15.9727 15.7262 15.7707 15.4718 15.5129C15.2217 15.2551 15.0225 14.95 14.8487 14.6149C14.7512 14.2797 14.6833 13.9188 14.6833 13.5578L14.6791 8.66798C14.7172 7.08244 15.1878 5.53126 16.0653 4.21986C16.9428 2.9063 18.1849 1.88966 19.639 1.30052C19.8085 1.21724 20.0671 1.18626 20.2876 1.21029C20.508 1.23431 20.72 1.31259 20.9023 1.43832C21.0846 1.56405 21.2372 1.73326 21.3389 1.93177C21.4449 2.12986 21.4618 2.35072 21.5 2.57501V21.4813Z" fill="#404040"/>
</svg>
