<svg width="32" height="32" viewBox="0 0 32 32" fill="none" xmlns="http://www.w3.org/2000/svg">
<g clip-path="url(#clip0_34_836)">
<rect width="32" height="32" fill="#FF3008"/>
<path d="M16 32C24.8366 32 32 24.8366 32 16C32 7.16344 24.8366 0 16 0C7.16344 0 0 7.16344 0 16C0 24.8366 7.16344 32 16 32Z" fill="#FF3008"/>
<path d="M25.7597 13.0218C25.2815 12.1263 24.5686 11.3778 23.6973 10.8566C22.8261 10.3354 21.8295 10.0612 20.8143 10.0632H5.18956C5.11845 10.0639 5.04818 10.0787 4.98284 10.1067C4.91749 10.1348 4.85837 10.1755 4.8089 10.2266C4.75944 10.2777 4.72062 10.3381 4.6947 10.4043C4.66878 10.4705 4.65628 10.5412 4.65792 10.6123C4.65588 10.6822 4.66907 10.7518 4.69657 10.8161C4.72407 10.8804 4.76523 10.9379 4.81719 10.9847L8.21865 14.4029C8.51836 14.7062 8.92609 14.8783 9.35247 14.8814H20.3736C20.5598 14.8791 20.7447 14.9135 20.9176 14.9826C21.0906 15.0517 21.2482 15.1542 21.3816 15.2842C21.5149 15.4142 21.6214 15.5693 21.6948 15.7404C21.7682 15.9116 21.8072 16.0956 21.8096 16.2818C21.8119 16.468 21.7775 16.6529 21.7084 16.8259C21.6393 16.9988 21.5368 17.1565 21.4068 17.2898C21.2767 17.4232 21.1217 17.5296 20.9506 17.603C20.7794 17.6764 20.5954 17.7155 20.4092 17.7178H12.8077C12.7366 17.7185 12.6664 17.7332 12.601 17.7613C12.5357 17.7893 12.4765 17.8301 12.4271 17.8812C12.3776 17.9322 12.3388 17.9927 12.3129 18.0589C12.287 18.1251 12.2745 18.1958 12.2761 18.2669C12.2741 18.3368 12.2872 18.4063 12.3148 18.4706C12.3423 18.5349 12.3834 18.5925 12.4354 18.6393L15.8194 22.0574C16.1191 22.3607 16.5268 22.5328 16.9532 22.536H20.3903C24.8732 22.536 28.2572 17.752 25.759 13.0218" fill="white"/>
</g>
<defs>
<clipPath id="clip0_34_836">
<rect width="32" height="32" fill="white"/>
</clipPath>
</defs>
</svg>
