<svg width="32" height="32" viewBox="0 0 32 32" fill="none" xmlns="http://www.w3.org/2000/svg">
<path d="M20.9336 10.427L28.5526 11.5449C29.1835 11.6345 29.7137 12.0774 29.9152 12.6838C30.1166 13.2954 29.9523 13.9598 29.4963 14.4133L23.9717 19.802L25.2759 27.5319C25.382 28.1647 25.1222 28.808 24.592 29.1823C24.0671 29.5567 23.3725 29.6041 22.8052 29.3036L15.9975 25.6917L9.19505 29.3036C8.62243 29.6041 7.92788 29.5567 7.40298 29.1823C6.87808 28.808 6.61299 28.1647 6.72433 27.5319L8.02861 19.802L2.50289 14.4133C2.04639 13.9598 1.88415 13.2954 2.08457 12.6838C2.28445 12.0774 2.81306 11.6345 3.44877 11.5449L11.0613 10.427L14.4758 3.44958C14.7568 2.86873 15.3506 2.5 15.9975 2.5C16.6496 2.5 17.2434 2.86873 17.5245 3.44958L20.9336 10.427Z" fill="#181818"/>
</svg>
