<svg width="32" height="32" viewBox="0 0 32 32" fill="none" xmlns="http://www.w3.org/2000/svg">
<path d="M15.998 2.5C16.486 2.5 16.9316 2.77691 17.1438 3.2131L20.7825 10.6648L28.914 11.8621C29.3914 11.9306 29.7839 12.2629 29.9377 12.7165C30.0862 13.1754 29.9642 13.6765 29.6247 14.0087L23.7264 19.8211L25.1214 28.0228C25.201 28.4975 25.0047 28.9828 24.6069 29.2623C24.2144 29.5419 23.6468 29.5788 23.2649 29.352L15.998 25.4911L8.68873 29.352C8.30682 29.5788 7.787 29.5419 7.38918 29.2623C6.99666 28.9828 6.8004 28.4975 6.83223 28.0228L8.26969 19.8211L2.37715 14.0087C2.0345 13.6765 1.91303 13.1754 2.06367 12.7165C2.21378 12.2629 2.61001 11.9306 3.08687 11.8621L11.2136 10.6648L14.8523 3.2131C15.0698 2.77685 15.51 2.5 15.998 2.5ZM15.998 6.66414L13.2133 12.3737C13.0276 12.7482 12.6669 13.0119 12.2532 13.0752L5.97717 13.9929L10.5346 18.4814C10.8264 18.7715 10.959 19.1882 10.89 19.5943L9.81854 25.9025L15.3987 22.9383C15.7753 22.7379 16.2261 22.7379 16.5974 22.9383L22.1775 25.9025L21.1061 19.5943C21.0371 19.1882 21.175 18.7715 21.4668 18.4814L26.0231 13.9929L19.7482 13.0752C19.3291 13.0119 18.9684 12.7482 18.7881 12.3737L15.998 6.66414Z" fill="#181818"/>
</svg>
