<svg width="32" height="32" viewBox="0 0 32 32" fill="none" xmlns="http://www.w3.org/2000/svg">
<g clip-path="url(#clip0_34_806)">
<path d="M0 5.33333C0 2.38782 2.38781 0 5.33333 0H26.6667C29.6122 0 32 2.38781 32 5.33333V26.6667C32 29.6122 29.6122 32 26.6667 32H5.33333C2.38782 32 0 29.6122 0 26.6667V5.33333Z" fill="#0040AC"/>
<path d="M14.2222 20.0938H12.062L13.4131 11.4891H15.5732L14.2222 20.0938Z" fill="white"/>
<path d="M22.0532 11.6996C21.6271 11.5255 20.9513 11.3333 20.1157 11.3333C17.9824 11.3333 16.4802 12.5049 16.471 14.18C16.4533 15.4159 17.5466 16.1023 18.3642 16.5144C19.2 16.9355 19.4841 17.2103 19.4841 17.5856C19.4756 18.1621 18.8087 18.4278 18.1868 18.4278C17.3244 18.4278 16.8622 18.2908 16.16 17.9701L15.8755 17.8326L15.5732 19.7642C16.0799 20.0019 17.0133 20.2129 17.9824 20.2221C20.2491 20.2221 21.7247 19.0686 21.7422 17.2836C21.7508 16.304 21.1735 15.5535 19.9289 14.9402C19.1734 14.5464 18.7107 14.281 18.7107 13.8781C18.7196 13.5119 19.102 13.1368 19.9549 13.1368C20.6572 13.1185 21.1732 13.2923 21.564 13.4663L21.7594 13.5577L22.0532 11.6996Z" fill="white"/>
<path d="M24.9242 17.0455C25.1021 16.5512 25.7866 14.638 25.7866 14.638C25.7777 14.6563 25.9642 14.1345 26.0709 13.8142L26.2218 14.5556C26.2218 14.5556 26.6309 16.6153 26.7197 17.0455C26.3821 17.0455 25.3509 17.0455 24.9242 17.0455ZM27.5907 11.4891H25.9198C25.4045 11.4891 25.013 11.6446 24.7907 12.2031L21.582 20.0937H23.8486C23.8486 20.0937 24.2218 19.0317 24.302 18.8029C24.5507 18.8029 26.7556 18.8029 27.0755 18.8029C27.1375 19.105 27.3333 20.0937 27.3333 20.0937H29.3334L27.5907 11.4891Z" fill="white"/>
<path d="M10.2579 11.4891L8.14234 17.3567L7.91116 16.1667C7.52004 14.7936 6.29341 13.3017 4.92456 12.5599L6.86231 20.0847H9.14665L12.5421 11.4891H10.2579Z" fill="white"/>
<path d="M6.17783 11.4891H2.7023L2.66675 11.663C5.37788 12.3771 7.17341 14.0983 7.91111 16.1671L7.15557 12.2124C7.03118 11.6629 6.64892 11.5073 6.17783 11.4891Z" fill="white"/>
</g>
<defs>
<clipPath id="clip0_34_806">
<rect width="32" height="32" fill="white"/>
</clipPath>
</defs>
</svg>
