<svg width="32" height="32" viewBox="0 0 32 32" fill="none" xmlns="http://www.w3.org/2000/svg">
<g clip-path="url(#clip0_34_828)">
<path d="M15.9999 5.33337C10.1074 5.33337 5.33325 10.1076 5.33325 16C5.33325 21.8925 10.1074 26.6667 15.9999 26.6667C21.8924 26.6667 26.6666 21.8925 26.6666 16C26.6666 10.1076 21.8924 5.33337 15.9999 5.33337ZM23.7117 12.2151H20.8214C20.5333 10.6452 20.0687 9.25595 19.4795 8.14198C21.3246 8.95918 22.8214 10.4086 23.7117 12.2151ZM15.9999 7.39789C16.7999 7.39789 18.0902 9.16993 18.7182 12.2151H13.2816C13.9096 9.16993 15.1999 7.39789 15.9999 7.39789ZM7.39777 16C7.39777 15.4108 7.45798 14.8344 7.56981 14.2796H10.9117C10.8687 14.8431 10.8386 15.4108 10.8386 16C10.8386 16.5893 10.8687 17.157 10.9117 17.7205H7.56981C7.45798 17.1656 7.39777 16.5893 7.39777 16ZM8.28809 19.785H11.1784C11.4666 21.3549 11.9311 22.7441 12.5203 23.8581C10.6752 23.0409 9.17841 21.5914 8.28809 19.785ZM11.1784 12.2151H8.28809C9.17841 10.4086 10.6752 8.95918 12.5203 8.14198C11.9311 9.25595 11.4666 10.6452 11.1784 12.2151ZM15.9999 24.6022C15.1999 24.6022 13.9096 22.8301 13.2816 19.785H18.7225C18.0902 22.8301 16.7999 24.6022 15.9999 24.6022ZM19.015 17.7205H12.9849C12.9376 17.1699 12.9031 16.6022 12.9031 16C12.9031 15.3979 12.9376 14.8301 12.9849 14.2796H19.0193C19.0666 14.8301 19.101 15.3979 19.101 16C19.101 16.6022 19.0623 17.1699 19.015 17.7205ZM19.4795 23.8581C20.0687 22.7441 20.529 21.3549 20.8214 19.785H23.7117C22.8214 21.5914 21.3246 23.0409 19.4795 23.8581ZM21.0881 17.7205C21.1311 17.157 21.1612 16.5893 21.1612 16C21.1612 15.4108 21.1311 14.8431 21.0881 14.2796H24.43C24.5419 14.8344 24.6021 15.4108 24.6021 16C24.6021 16.5893 24.5419 17.1656 24.43 17.7205H21.0881Z" fill="#181818"/>
<path fill-rule="evenodd" clip-rule="evenodd" d="M28 1H4C2.34315 1 1 2.34315 1 4V28C1 29.6569 2.34315 31 4 31H28C29.6569 31 31 29.6569 31 28V4C31 2.34315 29.6569 1 28 1ZM4 0C1.79086 0 0 1.79086 0 4V28C0 30.2091 1.79086 32 4 32H28C30.2091 32 32 30.2091 32 28V4C32 1.79086 30.2091 0 28 0H4Z" fill="#EAEAEA"/>
</g>
<defs>
<clipPath id="clip0_34_828">
<rect width="32" height="32" fill="white"/>
</clipPath>
</defs>
</svg>
